<svg xmlns="http://www.w3.org/2000/svg" xmlns:xlink="http://www.w3.org/1999/xlink"
     version="1.1"  width="32px" height="32px" viewBox="0 0 100 100"
     enable-background="new 0 0 100 100" xml:space="preserve"  xmlns:sketch="http://www.bohemiancoding.com/sketch/ns">

    <g id="flatten" stroke="none" stroke-width="1" fill="none" fill-rule="evenodd" sketch:type="MSPage">
        <g id="z-copy" sketch:type="MSArtboardGroup" transform="translate(-4.000000, -4.000000)" fill="#000000">
            <g id="energysaver" sketch:type="MSLayerGroup" transform="translate(4.000000, 4.000000)">
                <path style="fill:#34495e"  d="M95,51.5c-0.9,22.6-19.2,41.6-41.8,43.2c-1.1,0.1-2.1,0.1-3.2,0.1c-24.8,0-45-20.2-45-45c0-12,4.9-23.7,13.5-32.1     l0.5-0.4l-2.3-3.1c-0.4-0.6,0.1-1.3,0.7-1.2l11.5,1.7c0.1,0,0.3,0.1,0.4,0.2c0.1,0.1,0.1,0.3,0.1,0.4l-1.7,11.5     c-0.1,0.7-1,0.9-1.4,0.4l-2.3-3.1l-0.6,0.6c-6.6,6.9-10.2,16-10.1,25.6c0.1,19,15,35,33.9,36.4c1,0.1,2,0.1,2.9,0.1     c20.3,0,36.8-16.5,36.8-36.8c0-15.6-9.8-29.5-24.5-34.7l-0.7-0.3l-7.1,19.7c-0.2,0.5-0.1,1.1,0.3,1.6c0.3,0.5,0.9,0.7,1.4,0.7     l15.5,0c0.3,0,0.6,0.2,0.8,0.5c0.1,0.1,0.2,0.5-0.1,0.9c-2.9,4.3-9,12-16.1,20.9c-4.5,5.6-9.5,11.9-14.5,18.3     c-0.3,0.4-0.7,0.5-1,0.5c-0.5,0-0.9-0.3-1.2-0.6c-0.2-0.3-0.4-0.7-0.2-1.2L50,49.6c0.2-0.7,0.1-1.4-0.3-1.9     c-0.4-0.6-1.1-0.9-1.8-0.9l-13.1-0.1c-0.4,0-0.5-0.2-0.7-0.3c-0.2-0.3-0.2-0.7,0-1c2-4.4,4.1-13.3,6.2-21.8     c1.7-7,3.3-13.6,4.7-17.2C45.2,5.5,46,5,46.8,5c0,0,1.2,0,2.8,0c1.8,0,4.4,0,6.1,0.2c3.5,0.4,6.5,1.1,9.7,2.3     C83.8,14.2,95.7,31.9,95,51.5z"/>
            </g>
        </g>
    </g>
    </svg>