<svg xmlns="http://www.w3.org/2000/svg" xmlns:xlink="http://www.w3.org/1999/xlink"
     version="1.2" baseProfile="tiny"
     width="32px" height="32px"  viewBox="0 0 100 100" xml:space="preserve">
    <g>
    <path style="fill:#34495e" d="M55,5H45c-1.381,0-2.5,1.119-2.5,2.5v8.383c-14.315,3.396-25,16.278-25,31.617v16.464l-9.268,9.268   C7.764,73.701,7.5,74.337,7.5,75v7.5c0,1.381,1.119,2.5,2.5,2.5h30c0,5.514,4.486,10,10,10s10-4.486,10-10h30   c1.381,0,2.5-1.119,2.5-2.5V75c0-0.663-0.264-1.299-0.732-1.768L82.5,63.964V47.5c0-15.339-10.685-28.221-25-31.617V7.5   C57.5,6.119,56.381,5,55,5z M47.5,10h5v5.106C51.674,15.042,50.842,15,50,15s-1.674,0.042-2.5,0.106V10z M50,90   c-2.757,0-5-2.243-5-5h10C55,87.757,52.757,90,50,90z M77.5,47.5v15h-25c-1.381,0-2.5,1.119-2.5,2.5s1.119,2.5,2.5,2.5h26.465   l8.535,8.536V80h-75v-3.964l9.268-9.268C22.236,66.299,22.5,65.663,22.5,65V47.5C22.5,32.336,34.837,20,50,20   S77.5,32.336,77.5,47.5z"/>
    <path style="fill:#34495e" d="M27.5,47.5c0,1.381,1.119,2.5,2.5,2.5s2.5-1.119,2.5-2.5C32.5,37.851,40.351,30,50,30c1.381,0,2.5-1.119,2.5-2.5   S51.381,25,50,25C37.594,25,27.5,35.093,27.5,47.5z"/></g></svg>